<svg width="170" height="114" viewBox="0 0 170 114" fill="none" xmlns="http://www.w3.org/2000/svg">
<path d="M168.879 63.6468C167.608 49.3755 165.513 46.5962 164.722 45.5508C162.903 43.1352 159.993 41.5565 156.914 39.9002C156.74 39.8081 156.589 39.6768 156.475 39.5167C156.36 39.3565 156.284 39.1719 156.253 38.9774C156.222 38.7829 156.236 38.5838 156.295 38.3958C156.354 38.2078 156.456 38.0361 156.592 37.8943C157.163 37.3159 157.601 36.6209 157.877 35.857C158.153 35.0931 158.261 34.2785 158.192 33.4691C158.059 32.0339 157.392 30.7011 156.323 29.7349C155.253 28.7687 153.859 28.2397 152.418 28.2529H146.909C146.673 28.2543 146.437 28.2697 146.202 28.2989C146.042 28.2291 145.875 28.1736 145.705 28.1329C142.441 21.2356 137.974 11.7921 128.714 7.18331C114.979 0.35316 89.6789 0 84.7347 0C79.7904 0 54.4899 0.353161 40.7731 7.17271C31.5132 11.7815 27.0457 21.225 23.7825 28.1223L23.7542 28.1788C23.5915 28.2017 23.4316 28.2419 23.2774 28.2989C23.0431 28.2697 22.8073 28.2543 22.5711 28.2529H17.0512C15.6099 28.2397 14.2163 28.7687 13.1467 29.7349C12.0772 30.7011 11.4098 32.0339 11.277 33.4691C11.2143 34.2766 11.3266 35.0881 11.6064 35.8482C11.8862 36.6083 12.3267 37.299 12.898 37.8731C13.0347 38.015 13.1365 38.1867 13.1955 38.3746C13.2544 38.5626 13.2689 38.7617 13.2377 38.9562C13.2066 39.1507 13.1306 39.3354 13.0159 39.4955C12.9012 39.6556 12.7508 39.7869 12.5766 39.879C9.49707 41.546 6.57289 43.1246 4.76823 45.5296C3.97715 46.5891 1.88643 49.3544 0.611516 63.6256C-0.0948077 71.6565 -0.200756 79.97 0.353708 85.3239C1.51561 96.4485 3.69462 103.173 3.78644 103.452C4.12081 104.467 4.7363 105.367 5.56146 106.046C6.38662 106.726 7.3876 107.157 8.44818 107.291V107.361C8.44818 108.86 9.0435 110.297 10.1032 111.357C11.1629 112.416 12.6001 113.012 14.0988 113.012H33.8758C35.3745 113.012 36.8117 112.416 37.8714 111.357C38.9311 110.297 39.5264 108.86 39.5264 107.361C42.5671 107.361 44.6826 106.817 46.9252 106.238C50.1629 105.366 53.4723 104.785 56.8137 104.504C67.5886 103.476 78.3036 103.123 84.7347 103.123C91.0351 103.123 102.223 103.476 113.016 104.504C116.37 104.786 119.693 105.369 122.943 106.245C125.09 106.796 127.128 107.305 129.95 107.358C129.95 108.856 130.545 110.294 131.605 111.353C132.665 112.413 134.102 113.008 135.601 113.008H155.378C156.876 113.008 158.313 112.413 159.373 111.353C160.433 110.294 161.028 108.856 161.028 107.358V107.315C162.091 107.184 163.095 106.754 163.923 106.074C164.751 105.395 165.369 104.494 165.704 103.476C165.796 103.197 167.975 96.4732 169.137 85.3486C169.691 79.9911 169.592 71.6918 168.879 63.6468ZM33.9959 32.9535C36.8212 26.9498 40.0526 20.1549 45.8056 17.2908C54.1191 13.1517 71.3498 11.2871 84.7347 11.2871C98.1195 11.2871 115.35 13.1376 123.664 17.2908C129.417 20.1549 132.634 26.9533 135.473 32.9535L135.827 33.7199C136.033 34.1562 136.124 34.6381 136.092 35.1197C136.059 35.6013 135.904 36.0665 135.64 36.4709C135.377 36.8753 135.014 37.2055 134.587 37.43C134.159 37.6544 133.682 37.7656 133.199 37.753C121.463 37.4351 96.7422 36.418 84.7347 36.418C72.7272 36.418 48.0058 37.4599 36.2526 37.7777C35.7701 37.7903 35.2924 37.6791 34.865 37.4547C34.4377 37.2302 34.075 36.9001 33.8115 36.4956C33.548 36.0912 33.3925 35.626 33.3599 35.1444C33.3273 34.6628 33.4186 34.1809 33.6251 33.7446C33.7487 33.4833 33.8794 33.2184 33.9959 32.9535ZM38.2091 61.0758C32.134 61.807 26.0201 62.1679 19.9012 62.1565C16.1577 62.1565 12.2976 61.097 11.5807 57.7631C11.0898 55.5206 11.1428 54.2598 11.4077 52.9919C11.6302 51.9148 11.9833 51.1308 13.7491 50.8553C18.3402 50.149 20.9077 51.0354 28.423 53.2497C33.4061 54.7154 37.0013 56.6683 39.0496 58.2152C40.0773 58.978 39.5299 60.9699 38.2091 61.0758ZM116.392 90.0351C111.744 90.5648 102.449 90.3706 84.8406 90.3706C67.232 90.3706 57.9403 90.5648 53.2927 90.0351C48.4967 89.5018 42.3835 84.9672 46.5579 80.927C49.3372 78.2642 55.8213 76.2723 64.4561 75.1528C73.0909 74.0333 76.7461 73.4577 84.8053 73.4577C92.8644 73.4577 96.1488 73.8108 105.154 75.1564C114.16 76.5019 120.966 78.5185 123.053 80.9306C126.86 85.2533 121.184 89.4735 116.392 90.0563V90.0351ZM157.889 57.7596C157.182 61.1076 153.297 62.1529 149.568 62.1529C143.332 62.1544 137.101 61.7936 130.907 61.0723C129.826 60.9698 129.325 59.0734 130.42 58.2117C132.436 56.626 136.07 54.7118 141.046 53.2462C148.562 51.0319 152.895 50.1454 156.617 50.8836C157.525 51.0637 158.005 52.0384 158.062 52.6494C158.311 54.3506 158.252 56.0827 157.889 57.7631V57.7596Z" fill="#FF7235"/>
</svg>
