<svg width="149" height="149" viewBox="0 0 149 149" fill="none" xmlns="http://www.w3.org/2000/svg">
<path d="M40.6995 106.784C39.7257 106.778 38.765 106.56 37.884 106.145C37.003 105.73 36.223 105.129 35.5981 104.382C34.9732 103.635 34.5185 102.761 34.2656 101.821C34.0127 100.88 33.9676 99.8963 34.1335 98.9368L37.1433 81.2058L24.3616 68.65C23.4695 67.7757 22.8393 66.6694 22.5422 65.456C22.2451 64.2427 22.2929 62.9704 22.6802 61.7828C23.0675 60.5951 23.7789 59.5392 24.7341 58.7342C25.6894 57.9292 26.8505 57.4071 28.0866 57.2267L45.6935 54.6341L53.6128 38.5222C54.1547 37.3968 55.0032 36.4471 56.0609 35.7825C57.1185 35.1178 58.3423 34.7652 59.5914 34.7652C60.8406 34.7652 62.0643 35.1178 63.122 35.7825C64.1796 36.4471 65.0282 37.3968 65.5701 38.5222L73.5068 54.6341L91.1385 57.2267C92.8555 57.4577 94.4108 58.3603 95.4634 59.7364C96.5159 61.1125 96.9798 62.8498 96.7533 64.5675H114.233V29.8008H4.9668V106.784C4.9668 108.76 5.75171 110.655 7.14885 112.052C8.546 113.449 10.4409 114.234 12.4168 114.234H47.1835V104.221L43.821 105.999C42.861 106.514 41.7887 106.784 40.6995 106.784Z" fill="#FF7235"/>
<path d="M114.233 19.866C114.233 17.8902 113.449 15.9952 112.051 14.5981C110.654 13.2009 108.759 12.416 106.783 12.416H104.3C104.3 14.3919 103.515 16.2868 102.118 17.684C100.721 19.0811 98.826 19.866 96.8501 19.866C94.8743 19.866 92.9793 19.0811 91.5822 17.684C90.185 16.2868 89.4001 14.3919 89.4001 12.416H79.4668C79.4668 14.3919 78.6819 16.2868 77.2847 17.684C75.8876 19.0811 73.9927 19.866 72.0168 19.866C70.0409 19.866 68.146 19.0811 66.7489 17.684C65.3517 16.2868 64.5668 14.3919 64.5668 12.416H54.6335C54.6335 14.3919 53.8486 16.2868 52.4514 17.684C51.0543 19.0811 49.1593 19.866 47.1835 19.866C45.2076 19.866 43.3127 19.0811 41.9155 17.684C40.5184 16.2868 39.7335 14.3919 39.7335 12.416H29.8001C29.8001 14.3919 29.0152 16.2868 27.6181 17.684C26.2209 19.0811 24.326 19.866 22.3501 19.866C20.3743 19.866 18.4793 19.0811 17.0822 17.684C15.685 16.2868 14.9001 14.3919 14.9001 12.416H12.4168C10.4409 12.416 8.546 13.2009 7.14885 14.5981C5.75171 15.9952 4.9668 17.8902 4.9668 19.866V24.8327H114.233V19.866Z" fill="#FF7235"/>
<path d="M91.7381 64.5666C91.9105 64.167 91.9299 63.718 91.7927 63.3051C91.699 62.9978 91.5186 62.724 91.2733 62.5166C91.028 62.3091 90.7281 62.1768 90.4095 62.1354L71.4791 59.3516C71.081 59.2934 70.7031 59.1393 70.3778 58.9027C70.0525 58.6661 69.7896 58.354 69.6116 57.9932L61.1186 40.7092C60.9858 40.4179 60.7721 40.1709 60.5028 39.9977C60.2336 39.8245 59.9202 39.7324 59.6 39.7324C59.2799 39.7324 58.9665 39.8245 58.6972 39.9977C58.428 40.1709 58.2142 40.4179 58.0815 40.7092L49.586 58.0007C49.408 58.3614 49.145 58.6735 48.8197 58.9101C48.4944 59.1468 48.1165 59.3008 47.7185 59.359L28.8055 62.1329C28.4854 62.1738 28.184 62.3061 27.9373 62.514C27.6907 62.7219 27.5092 62.9966 27.4148 63.3051C27.3075 63.6143 27.2912 63.9479 27.3678 64.2661C27.4444 64.5843 27.6107 64.8739 27.8469 65.1005L41.5549 78.5627C41.8414 78.8428 42.0558 79.1881 42.1799 79.569C42.304 79.95 42.3341 80.3554 42.2676 80.7505L39.0393 99.7728C38.9751 100.094 39.0057 100.428 39.1273 100.733C39.249 101.037 39.4565 101.3 39.7247 101.489C39.9782 101.678 40.2811 101.791 40.597 101.812C40.9129 101.834 41.2282 101.764 41.5052 101.61L47.1821 98.6057V79.4666C47.1861 75.5161 48.7571 71.7285 51.5506 68.9351C54.344 66.1416 58.1316 64.5705 62.0821 64.5666H91.7381Z" fill="#FF7235"/>
<path d="M22.3505 14.9001C23.0091 14.9001 23.6408 14.6385 24.1065 14.1728C24.5722 13.7071 24.8339 13.0754 24.8339 12.4168V7.45013C24.8339 6.79151 24.5722 6.15986 24.1065 5.69415C23.6408 5.22843 23.0091 4.9668 22.3505 4.9668C21.6919 4.9668 21.0603 5.22843 20.5945 5.69415C20.1288 6.15986 19.8672 6.79151 19.8672 7.45013V12.4168C19.8672 13.0754 20.1288 13.7071 20.5945 14.1728C21.0603 14.6385 21.6919 14.9001 22.3505 14.9001Z" fill="#FF7235"/>
<path d="M47.1826 14.9001C47.8412 14.9001 48.4728 14.6385 48.9385 14.1728C49.4043 13.7071 49.6659 13.0754 49.6659 12.4168V7.45013C49.6659 6.79151 49.4043 6.15986 48.9385 5.69415C48.4728 5.22843 47.8412 4.9668 47.1826 4.9668C46.5239 4.9668 45.8923 5.22843 45.4266 5.69415C44.9609 6.15986 44.6992 6.79151 44.6992 7.45013V12.4168C44.6992 13.0754 44.9609 13.7071 45.4266 14.1728C45.8923 14.6385 46.5239 14.9001 47.1826 14.9001Z" fill="#FF7235"/>
<path d="M72.0165 14.9001C72.6752 14.9001 73.3068 14.6385 73.7725 14.1728C74.2382 13.7071 74.4999 13.0754 74.4999 12.4168V7.45013C74.4999 6.79151 74.2382 6.15986 73.7725 5.69415C73.3068 5.22843 72.6752 4.9668 72.0165 4.9668C71.3579 4.9668 70.7263 5.22843 70.2606 5.69415C69.7948 6.15986 69.5332 6.79151 69.5332 7.45013V12.4168C69.5332 13.0754 69.7948 13.7071 70.2606 14.1728C70.7263 14.6385 71.3579 14.9001 72.0165 14.9001Z" fill="#FF7235"/>
<path d="M96.8505 14.9001C97.5091 14.9001 98.1408 14.6385 98.6065 14.1728C99.0722 13.7071 99.3339 13.0754 99.3339 12.4168V7.45013C99.3339 6.79151 99.0722 6.15986 98.6065 5.69415C98.1408 5.22843 97.5091 4.9668 96.8505 4.9668C96.1919 4.9668 95.5603 5.22843 95.0945 5.69415C94.6288 6.15986 94.3672 6.79151 94.3672 7.45013V12.4168C94.3672 13.0754 94.6288 13.7071 95.0945 14.1728C95.5603 14.6385 96.1919 14.9001 96.8505 14.9001Z" fill="#FF7235"/>
<path d="M89.4003 111.75C92.1433 111.75 94.3669 109.526 94.3669 106.783C94.3669 104.04 92.1433 101.816 89.4003 101.816C86.6572 101.816 84.4336 104.04 84.4336 106.783C84.4336 109.526 86.6572 111.75 89.4003 111.75Z" fill="#FF7235"/>
<path d="M143.127 81.8977C142.863 81.796 142.572 81.7839 142.299 81.8633C142.027 81.9427 141.788 82.1092 141.62 82.3373L131.096 95.8888C130.778 96.2978 130.341 96.5973 129.845 96.7456C129.349 96.8938 128.819 96.8834 128.329 96.7157C127.839 96.5479 127.414 96.2313 127.113 95.8102C126.812 95.389 126.65 94.8842 126.65 94.3665V79.4665C126.65 76.8321 125.604 74.3055 123.741 72.4426C121.878 70.5797 119.352 69.5332 116.717 69.5332H62.0837C59.4492 69.5332 56.9227 70.5797 55.0598 72.4426C53.1969 74.3055 52.1504 76.8321 52.1504 79.4665V134.1C52.1504 136.734 53.1969 139.261 55.0598 141.124C56.9227 142.987 59.4492 144.033 62.0837 144.033H116.717C119.352 144.033 121.878 142.987 123.741 141.124C125.604 139.261 126.65 136.734 126.65 134.1V119.2C126.65 118.682 126.812 118.177 127.113 117.756C127.414 117.335 127.839 117.018 128.329 116.851C128.819 116.683 129.349 116.673 129.845 116.821C130.341 116.969 130.778 117.269 131.096 117.678L141.625 131.237C141.8 131.454 142.038 131.613 142.306 131.69C142.575 131.767 142.861 131.76 143.125 131.668C143.388 131.576 143.617 131.405 143.78 131.178C143.943 130.951 144.032 130.679 144.034 130.4V83.1667C144.042 82.8852 143.958 82.6087 143.794 82.3796C143.631 82.1504 143.396 81.9812 143.127 81.8977ZM69.0371 120.193C69.4322 120.72 69.6019 121.382 69.5088 122.034C69.4156 122.686 69.0673 123.275 68.5404 123.67C68.0135 124.065 67.3512 124.235 66.6992 124.142C66.0472 124.048 65.4589 123.7 65.0637 123.173C61.5221 118.447 59.6078 112.699 59.6078 106.793C59.6078 100.887 61.5221 95.1397 65.0637 90.4131C65.2478 90.1265 65.4889 89.8809 65.772 89.6915C66.055 89.5021 66.374 89.3729 66.7091 89.3121C67.0442 89.2512 67.3883 89.2599 67.7198 89.3376C68.0514 89.4154 68.3635 89.5605 68.6366 89.764C68.9098 89.9674 69.1381 90.2249 69.3075 90.5204C69.4769 90.8159 69.5836 91.1431 69.6212 91.4816C69.6587 91.8201 69.6263 92.1627 69.5258 92.4881C69.4253 92.8135 69.2589 93.1148 69.0371 93.3732C66.1308 97.2437 64.5596 101.953 64.5596 106.793C64.5596 111.633 66.1308 116.343 69.0371 120.213V120.193ZM77.16 115.286C77.3545 115.553 77.4938 115.856 77.5697 116.178C77.6455 116.499 77.6565 116.833 77.6018 117.159C77.5472 117.485 77.4281 117.796 77.2515 118.075C77.0749 118.355 76.8444 118.596 76.5734 118.785C76.3025 118.974 75.9965 119.107 75.6735 119.176C75.3505 119.246 75.0168 119.25 74.6922 119.188C74.3675 119.127 74.0584 119.002 73.7828 118.819C73.5073 118.637 73.2708 118.402 73.0874 118.127C70.7672 114.796 69.5233 110.833 69.5233 106.773C69.5233 102.713 70.7672 98.751 73.0874 95.4195C73.47 94.8942 74.0432 94.5398 74.6841 94.4323C75.325 94.3249 75.9825 94.4729 76.5155 94.8447C77.0485 95.2165 77.4145 95.7824 77.535 96.421C77.6555 97.0596 77.5209 97.7199 77.16 98.2604C75.421 100.759 74.4887 103.729 74.4887 106.773C74.4887 109.817 75.421 112.788 77.16 115.286ZM89.4004 116.717C87.4358 116.717 85.5152 116.134 83.8817 115.042C82.2482 113.951 80.975 112.4 80.2232 110.585C79.4714 108.769 79.2746 106.772 79.6579 104.845C80.0412 102.918 80.9873 101.148 82.3765 99.7593C83.7657 98.3701 85.5356 97.424 87.4625 97.0407C89.3894 96.6575 91.3866 96.8542 93.2017 97.606C95.0168 98.3578 96.5682 99.631 97.6597 101.265C98.7511 102.898 99.3337 104.819 99.3337 106.783C99.3337 109.418 98.2872 111.944 96.4243 113.807C94.5615 115.67 92.0349 116.717 89.4004 116.717ZM105.703 118.137C105.52 118.412 105.284 118.647 105.008 118.829C104.732 119.012 104.423 119.137 104.099 119.198C103.774 119.26 103.44 119.255 103.117 119.186C102.794 119.117 102.488 118.984 102.217 118.795C101.946 118.606 101.716 118.365 101.539 118.085C101.363 117.806 101.244 117.495 101.189 117.169C101.134 116.843 101.145 116.509 101.221 116.188C101.297 115.866 101.436 115.563 101.631 115.296C103.37 112.798 104.302 109.827 104.302 106.783C104.302 103.739 103.37 100.768 101.631 98.2703C101.27 97.7299 101.135 97.0695 101.256 96.4309C101.376 95.7923 101.742 95.2264 102.275 94.8547C102.808 94.4829 103.466 94.3348 104.107 94.4423C104.748 94.5497 105.321 94.9041 105.703 95.4294C108.024 98.7609 109.268 102.723 109.268 106.783C109.268 110.843 108.024 114.805 105.703 118.137ZM113.737 123.173C113.541 123.434 113.296 123.654 113.016 123.82C112.735 123.986 112.424 124.095 112.102 124.142C111.779 124.188 111.45 124.17 111.134 124.089C110.818 124.008 110.521 123.866 110.26 123.67C109.999 123.474 109.78 123.229 109.614 122.948C109.447 122.668 109.338 122.357 109.292 122.034C109.246 121.712 109.264 121.383 109.345 121.067C109.426 120.751 109.568 120.454 109.764 120.193C112.67 116.323 114.241 111.613 114.241 106.773C114.241 101.933 112.67 97.2238 109.764 93.3533C109.542 93.0949 109.375 92.7937 109.275 92.4682C109.174 92.1428 109.142 91.8002 109.18 91.4617C109.217 91.1232 109.324 90.796 109.493 90.5005C109.663 90.2051 109.891 89.9476 110.164 89.7441C110.437 89.5406 110.749 89.3955 111.081 89.3178C111.413 89.24 111.757 89.2313 112.092 89.2922C112.427 89.3531 112.746 89.4822 113.029 89.6716C113.312 89.861 113.553 90.1067 113.737 90.3932C117.279 95.1198 119.193 100.867 119.193 106.773C119.193 112.68 117.279 118.427 113.737 123.153V123.173Z" fill="#FF7235"/>
</svg>
