<svg width="163" height="141" viewBox="0 0 163 141" fill="none" xmlns="http://www.w3.org/2000/svg">
<path d="M57.6218 140.5H48.6311C47.7278 140.5 46.8389 140.273 46.0458 139.84C45.2527 139.408 44.5806 138.783 44.0911 138.024C43.6016 137.265 43.3103 136.395 43.2438 135.494C43.1772 134.593 43.3376 133.69 43.7103 132.867L65.481 84.8235L32.7911 84.0974L20.8689 98.5425C18.5959 101.4 16.7822 102.673 12.1552 102.673H6.10288C5.14461 102.704 4.19303 102.503 3.32878 102.088C2.46452 101.673 1.71307 101.056 1.13809 100.289C0.334269 99.2045 -0.456043 97.3672 0.314005 94.7463L7.00802 70.7667C7.05868 70.5877 7.11947 70.4087 7.18702 70.2331C7.19039 70.2164 7.19039 70.1992 7.18702 70.1825C7.11727 70.007 7.05751 69.8277 7.00802 69.6454L0.30725 45.5139C-0.418892 42.9437 0.374798 41.1469 1.17187 40.0898C1.7071 39.3796 2.40151 38.8049 3.19927 38.4119C3.99702 38.0188 4.87587 37.8185 5.76514 37.8269H12.1552C15.6103 37.8269 18.964 39.3772 20.9364 41.8798L32.6121 56.0818L65.481 55.5954L43.717 7.63631C43.3439 6.81375 43.1829 5.91076 43.2487 5.00992C43.3145 4.10907 43.6051 3.2391 44.0939 2.47954C44.5827 1.71997 45.2541 1.09505 46.0467 0.661895C46.8393 0.22874 47.7279 0.00117327 48.6311 0H57.7197C58.9877 0.0254805 60.2336 0.336261 61.365 0.909265C62.4964 1.48227 63.4842 2.30277 64.255 3.30986L106.489 54.6464L126.001 54.133C127.429 54.0553 131.388 54.0283 132.303 54.0283C150.966 54.0385 162.112 60.0975 162.112 70.25C162.112 73.445 160.835 79.369 152.294 83.1382C147.251 85.3673 140.524 86.4953 132.296 86.4953C131.391 86.4953 127.443 86.4683 125.994 86.3906L106.486 85.8705L64.1469 137.207C63.3755 138.21 62.3886 139.026 61.2591 139.596C60.1297 140.166 58.8866 140.475 57.6218 140.5Z" fill="#FF7235"/>
</svg>
