<svg width="141" height="141" viewBox="0 0 141 141" fill="none" xmlns="http://www.w3.org/2000/svg">
<path d="M61.6875 101.344H79.3125V132.188H61.6875V101.344Z" fill="#FF7235"/>
<path d="M127.781 123.375H118.969V35.25C118.969 32.6062 117.206 30.8438 114.562 30.8438H110.156V13.2188C110.156 10.575 108.394 8.8125 105.75 8.8125H35.25C32.6062 8.8125 30.8438 10.575 30.8438 13.2188V30.8438H26.4375C23.7937 30.8438 22.0312 32.6062 22.0312 35.25V123.375H13.2188C10.575 123.375 8.8125 125.137 8.8125 127.781C8.8125 130.425 10.575 132.188 13.2188 132.188H52.875V96.9375C52.875 94.2937 54.6375 92.5312 57.2812 92.5312H83.7188C86.3625 92.5312 88.125 94.2937 88.125 96.9375V132.188H127.781C130.425 132.188 132.188 130.425 132.188 127.781C132.188 125.137 130.425 123.375 127.781 123.375ZM96.9375 44.0625C99.5813 44.0625 101.344 45.825 101.344 48.4688V57.2812C101.344 59.925 99.5813 61.6875 96.9375 61.6875C94.2937 61.6875 92.5312 59.925 92.5312 57.2812V48.4688C92.5312 45.825 94.2937 44.0625 96.9375 44.0625ZM44.0625 110.156C44.0625 112.8 42.3 114.562 39.6562 114.562C37.0125 114.562 35.25 112.8 35.25 110.156V101.344C35.25 98.7 37.0125 96.9375 39.6562 96.9375C42.3 96.9375 44.0625 98.7 44.0625 101.344V110.156ZM48.4688 83.7188C48.4688 86.3625 46.7063 88.125 44.0625 88.125C41.4187 88.125 39.6562 86.3625 39.6562 83.7188V74.9062C39.6562 72.2625 41.4187 70.5 44.0625 70.5C46.7063 70.5 48.4688 72.2625 48.4688 74.9062V83.7188ZM48.4688 57.2812C48.4688 59.925 46.7063 61.6875 44.0625 61.6875C41.4187 61.6875 39.6562 59.925 39.6562 57.2812V48.4688C39.6562 45.825 41.4187 44.0625 44.0625 44.0625C46.7063 44.0625 48.4688 45.825 48.4688 48.4688V57.2812ZM52.875 39.6562C50.2312 39.6562 48.4688 37.8938 48.4688 35.25V26.4375C48.4688 23.7937 50.2312 22.0312 52.875 22.0312C55.5188 22.0312 57.2812 23.7937 57.2812 26.4375V35.25C57.2812 37.8938 55.5188 39.6562 52.875 39.6562ZM66.0938 83.7188C66.0938 86.3625 64.3313 88.125 61.6875 88.125C59.0437 88.125 57.2812 86.3625 57.2812 83.7188V74.9062C57.2812 72.2625 59.0437 70.5 61.6875 70.5C64.3313 70.5 66.0938 72.2625 66.0938 74.9062V83.7188ZM66.0938 57.2812C66.0938 59.925 64.3313 61.6875 61.6875 61.6875C59.0437 61.6875 57.2812 59.925 57.2812 57.2812V48.4688C57.2812 45.825 59.0437 44.0625 61.6875 44.0625C64.3313 44.0625 66.0938 45.825 66.0938 48.4688V57.2812ZM70.5 39.6562C67.8562 39.6562 66.0938 37.8938 66.0938 35.25V26.4375C66.0938 23.7937 67.8562 22.0312 70.5 22.0312C73.1438 22.0312 74.9062 23.7937 74.9062 26.4375V35.25C74.9062 37.8938 73.1438 39.6562 70.5 39.6562ZM83.7188 83.7188C83.7188 86.3625 81.9563 88.125 79.3125 88.125C76.6687 88.125 74.9062 86.3625 74.9062 83.7188V74.9062C74.9062 72.2625 76.6687 70.5 79.3125 70.5C81.9563 70.5 83.7188 72.2625 83.7188 74.9062V83.7188ZM83.7188 57.2812C83.7188 59.925 81.9563 61.6875 79.3125 61.6875C76.6687 61.6875 74.9062 59.925 74.9062 57.2812V48.4688C74.9062 45.825 76.6687 44.0625 79.3125 44.0625C81.9563 44.0625 83.7188 45.825 83.7188 48.4688V57.2812ZM88.125 39.6562C85.4812 39.6562 83.7188 37.8938 83.7188 35.25V26.4375C83.7188 23.7937 85.4812 22.0312 88.125 22.0312C90.7688 22.0312 92.5312 23.7937 92.5312 26.4375V35.25C92.5312 37.8938 90.7688 39.6562 88.125 39.6562ZM92.5312 83.7188V74.9062C92.5312 72.2625 94.2937 70.5 96.9375 70.5C99.5813 70.5 101.344 72.2625 101.344 74.9062V83.7188C101.344 86.3625 99.5813 88.125 96.9375 88.125C94.2937 88.125 92.5312 86.3625 92.5312 83.7188ZM105.75 110.156C105.75 112.8 103.988 114.562 101.344 114.562C98.7 114.562 96.9375 112.8 96.9375 110.156V101.344C96.9375 98.7 98.7 96.9375 101.344 96.9375C103.988 96.9375 105.75 98.7 105.75 101.344V110.156Z" fill="#FF7235"/>
</svg>
