<svg width="162" height="162" viewBox="0 0 162 162" fill="none" xmlns="http://www.w3.org/2000/svg">
<path d="M43.2139 19.2402V52.3351C43.2139 56.5808 39.2521 60.0348 34.3818 60.0348H33.6185V142.258C33.6185 143.652 32.4893 144.781 31.0951 144.781H19.6891C18.2949 144.781 17.1657 143.652 17.1657 142.258V60.0348H16.4023C11.5321 60.0348 7.57031 56.5808 7.57031 52.3351V19.2402C7.57031 17.846 8.70271 16.7168 10.0938 16.7168C11.4879 16.7168 12.6172 17.846 12.6172 19.2402V44.6323H17.7713V19.2402C17.7713 17.846 18.9005 16.7168 20.2947 16.7168C21.6889 16.7168 22.8182 17.846 22.8182 19.2402V44.6323H27.9691V19.2402C27.9691 17.846 29.0984 16.7168 30.4926 16.7168C31.8868 16.7168 33.016 17.846 33.016 19.2402V44.6323H38.167V19.2402C38.167 17.846 39.2994 16.7168 40.6904 16.7168C42.0846 16.7168 43.2139 17.846 43.2139 19.2402Z" fill="#FF7235"/>
<path d="M153.929 46.3009C153.929 51.9282 150.38 59.4102 144.333 61.6119V142.258C144.333 143.652 143.204 144.781 141.81 144.781H130.404C129.01 144.781 127.881 143.652 127.881 142.258V61.6119C121.831 59.4102 118.285 51.9282 118.285 46.3009C118.285 45.4398 118.307 44.5882 118.348 43.7491C119.102 28.4003 126.628 16.7168 136.107 16.7168C146.1 16.7168 153.929 29.7125 153.929 46.3009Z" fill="#FF7235"/>
<path d="M117.634 80.7504C117.634 90.6012 113.798 99.8654 106.83 106.83C99.8654 113.798 90.6016 117.634 80.7504 117.634C70.8995 117.634 61.6353 113.798 54.6707 106.83C47.7028 99.8654 43.8672 90.6016 43.8672 80.7504C43.8672 70.8995 47.7028 61.6353 54.6707 54.6707C61.6353 47.7028 70.8995 43.8672 80.7504 43.8672C90.6012 43.8672 99.8654 47.7028 106.83 54.6707C113.798 61.6353 117.634 70.8995 117.634 80.7504Z" fill="#FF7235"/>
<path d="M113.24 46.3017C113.24 43.9612 113.379 41.6901 113.644 39.5042C104.626 32.2998 93.188 27.9941 80.7506 27.9941C68.4962 27.9941 57.2164 32.1736 48.2614 39.1824V52.3358C48.2614 53.0676 48.1951 53.7868 48.0627 54.4839C55.7497 44.9327 67.5341 38.8197 80.7506 38.8197C103.909 38.8197 122.681 57.5909 122.681 80.7498C122.681 103.909 103.909 122.68 80.7506 122.68C57.5918 122.68 38.8206 103.909 38.8206 80.7498C38.8206 74.1005 40.3693 67.8108 43.1262 62.2246C41.8172 63.2056 40.3094 63.9689 38.666 64.461V112.564C48.2961 125.285 63.5629 133.505 80.7506 133.505C97.9384 133.505 113.205 125.285 122.835 112.564V64.6975C116.577 60.6443 113.24 52.6923 113.24 46.3017Z" fill="#FF7235"/>
</svg>
