<svg width="132" height="155" viewBox="0 0 132 155" fill="none" xmlns="http://www.w3.org/2000/svg">
<path d="M65.9156 47.9121C49.6502 47.9121 36.418 61.1443 36.418 77.4085C36.418 93.6739 49.6502 106.906 65.9156 106.906C82.1797 106.906 95.412 93.6739 95.412 77.4085C95.412 61.1443 82.1797 47.9121 65.9156 47.9121ZM83.4282 71.8537L62.2966 92.9853C61.4095 93.8723 60.2461 94.3164 59.0839 94.3164C57.9217 94.3164 56.7594 93.8735 55.8724 92.9853L47.797 84.9099C46.0229 83.137 46.0229 80.2609 47.797 78.4869C49.5699 76.7128 52.4459 76.7128 54.22 78.4869L59.0839 83.3508L77.0052 65.4307C78.7781 63.6566 81.6541 63.6566 83.4282 65.4307C85.2023 67.2035 85.2023 70.0796 83.4282 71.8537Z" fill="#FF7235"/>
<path d="M131.678 42.0049L131.674 41.8844C131.606 40.3974 131.561 38.8241 131.534 37.0737C131.408 28.5376 124.622 21.4768 116.085 20.9996C98.2855 20.0063 84.5158 14.2022 72.7506 2.73462L72.6502 2.63894C68.8127 -0.879648 63.024 -0.879648 59.1853 2.63894L59.0849 2.73462C47.3196 14.2022 33.55 20.0063 15.7503 21.0008C7.2143 21.4768 0.427514 28.5376 0.301134 37.0748C0.275149 38.8135 0.229084 40.3867 0.16176 41.8844L0.154673 42.1643C-0.191398 60.3148 -0.62133 82.9039 6.93555 103.407C11.0908 114.682 17.3838 124.483 25.6388 132.54C35.0406 141.715 47.3551 148.999 62.2397 154.189C62.7239 154.358 63.2271 154.495 63.7397 154.597C64.4626 154.742 65.1901 154.814 65.9177 154.814C66.6453 154.814 67.3741 154.742 68.0957 154.597C68.6083 154.495 69.115 154.356 69.6017 154.186C84.4686 148.987 96.7701 141.699 106.164 132.526C114.415 124.467 120.708 114.663 124.867 103.386C132.452 82.8212 132.023 60.1896 131.678 42.0049ZM65.9154 115.991C44.6408 115.991 27.3337 98.6838 27.3337 77.4093C27.3337 56.1348 44.6408 38.8276 65.9154 38.8276C87.1887 38.8276 104.497 56.1348 104.497 77.4093C104.497 98.6838 87.1887 115.991 65.9154 115.991Z" fill="#FF7235"/>
</svg>
